<?xml version="1.0" encoding="utf-8" standalone="no"?>
<!DOCTYPE svg PUBLIC "-//W3C//DTD SVG 1.1//EN"
  "http://www.w3.org/Graphics/SVG/1.1/DTD/svg11.dtd">
<svg xmlns:xlink="http://www.w3.org/1999/xlink" width="1993.4875pt" height="1661.878125pt" viewBox="0 0 1993.4875 1661.878125" xmlns="http://www.w3.org/2000/svg" version="1.1">
 <metadata>
  <rdf:RDF xmlns:dc="http://purl.org/dc/elements/1.1/" xmlns:cc="http://creativecommons.org/ns#" xmlns:rdf="http://www.w3.org/1999/02/22-rdf-syntax-ns#">
   <cc:Work>
    <dc:type rdf:resource="http://purl.org/dc/dcmitype/StillImage"/>
    <dc:date>2023-03-16T17:10:27.144772</dc:date>
    <dc:format>image/svg+xml</dc:format>
    <dc:creator>
     <cc:Agent>
      <dc:title>Matplotlib v3.6.3, https://matplotlib.org/</dc:title>
     </cc:Agent>
    </dc:creator>
   </cc:Work>
  </rdf:RDF>
 </metadata>
 <defs>
  <style type="text/css">*{stroke-linejoin: round; stroke-linecap: butt}</style>
 </defs>
 <g id="figure_1">
  <g id="patch_1">
   <path d="M 0 1661.878125 
L 1993.4875 1661.878125 
L 1993.4875 0 
L 0 0 
L 0 1661.878125 
z
" style="fill: none"/>
  </g>
  <g id="axes_1">
   <g id="patch_2">
    <path d="M 33.2875 1638 
L 1986.2875 1638 
L 1986.2875 7.2 
L 33.2875 7.2 
z
" style="fill: #ffffff"/>
   </g>
   <g id="matplotlib.axis_1">
    <g id="xtick_1">
     <g id="line2d_1">
      <defs>
       <path id="me59fb67126" d="M 0 0 
L 0 3.5 
" style="stroke: #000000; stroke-width: 0.8"/>
      </defs>
      <g>
       <use xlink:href="#me59fb67126" x="79.418306" y="1638" style="stroke: #000000; stroke-width: 0.8"/>
      </g>
     </g>
     <g id="text_1">
      <!-- 0 -->
      <g transform="translate(76.237056 1652.598438) scale(0.1 -0.1)">
       <defs>
        <path id="DejaVuSans-30" d="M 2034 4250 
Q 1547 4250 1301 3770 
Q 1056 3291 1056 2328 
Q 1056 1369 1301 889 
Q 1547 409 2034 409 
Q 2525 409 2770 889 
Q 3016 1369 3016 2328 
Q 3016 3291 2770 3770 
Q 2525 4250 2034 4250 
z
M 2034 4750 
Q 2819 4750 3233 4129 
Q 3647 3509 3647 2328 
Q 3647 1150 3233 529 
Q 2819 -91 2034 -91 
Q 1250 -91 836 529 
Q 422 1150 422 2328 
Q 422 3509 836 4129 
Q 1250 4750 2034 4750 
z
" transform="scale(0.015625)"/>
       </defs>
       <use xlink:href="#DejaVuSans-30"/>
      </g>
     </g>
    </g>
    <g id="xtick_2">
     <g id="line2d_2">
      <g>
       <use xlink:href="#me59fb67126" x="321.70195" y="1638" style="stroke: #000000; stroke-width: 0.8"/>
      </g>
     </g>
     <g id="text_2">
      <!-- 250 -->
      <g transform="translate(312.1582 1652.598438) scale(0.1 -0.1)">
       <defs>
        <path id="DejaVuSans-32" d="M 1228 531 
L 3431 531 
L 3431 0 
L 469 0 
L 469 531 
Q 828 903 1448 1529 
Q 2069 2156 2228 2338 
Q 2531 2678 2651 2914 
Q 2772 3150 2772 3378 
Q 2772 3750 2511 3984 
Q 2250 4219 1831 4219 
Q 1534 4219 1204 4116 
Q 875 4013 500 3803 
L 500 4441 
Q 881 4594 1212 4672 
Q 1544 4750 1819 4750 
Q 2544 4750 2975 4387 
Q 3406 4025 3406 3419 
Q 3406 3131 3298 2873 
Q 3191 2616 2906 2266 
Q 2828 2175 2409 1742 
Q 1991 1309 1228 531 
z
" transform="scale(0.015625)"/>
        <path id="DejaVuSans-35" d="M 691 4666 
L 3169 4666 
L 3169 4134 
L 1269 4134 
L 1269 2991 
Q 1406 3038 1543 3061 
Q 1681 3084 1819 3084 
Q 2600 3084 3056 2656 
Q 3513 2228 3513 1497 
Q 3513 744 3044 326 
Q 2575 -91 1722 -91 
Q 1428 -91 1123 -41 
Q 819 9 494 109 
L 494 744 
Q 775 591 1075 516 
Q 1375 441 1709 441 
Q 2250 441 2565 725 
Q 2881 1009 2881 1497 
Q 2881 1984 2565 2268 
Q 2250 2553 1709 2553 
Q 1456 2553 1204 2497 
Q 953 2441 691 2322 
L 691 4666 
z
" transform="scale(0.015625)"/>
       </defs>
       <use xlink:href="#DejaVuSans-32"/>
       <use xlink:href="#DejaVuSans-35" x="63.623047"/>
       <use xlink:href="#DejaVuSans-30" x="127.246094"/>
      </g>
     </g>
    </g>
    <g id="xtick_3">
     <g id="line2d_3">
      <g>
       <use xlink:href="#me59fb67126" x="563.985594" y="1638" style="stroke: #000000; stroke-width: 0.8"/>
      </g>
     </g>
     <g id="text_3">
      <!-- 500 -->
      <g transform="translate(554.441844 1652.598438) scale(0.1 -0.1)">
       <use xlink:href="#DejaVuSans-35"/>
       <use xlink:href="#DejaVuSans-30" x="63.623047"/>
       <use xlink:href="#DejaVuSans-30" x="127.246094"/>
      </g>
     </g>
    </g>
    <g id="xtick_4">
     <g id="line2d_4">
      <g>
       <use xlink:href="#me59fb67126" x="806.269239" y="1638" style="stroke: #000000; stroke-width: 0.8"/>
      </g>
     </g>
     <g id="text_4">
      <!-- 750 -->
      <g transform="translate(796.725489 1652.598438) scale(0.1 -0.1)">
       <defs>
        <path id="DejaVuSans-37" d="M 525 4666 
L 3525 4666 
L 3525 4397 
L 1831 0 
L 1172 0 
L 2766 4134 
L 525 4134 
L 525 4666 
z
" transform="scale(0.015625)"/>
       </defs>
       <use xlink:href="#DejaVuSans-37"/>
       <use xlink:href="#DejaVuSans-35" x="63.623047"/>
       <use xlink:href="#DejaVuSans-30" x="127.246094"/>
      </g>
     </g>
    </g>
    <g id="xtick_5">
     <g id="line2d_5">
      <g>
       <use xlink:href="#me59fb67126" x="1048.552883" y="1638" style="stroke: #000000; stroke-width: 0.8"/>
      </g>
     </g>
     <g id="text_5">
      <!-- 1000 -->
      <g transform="translate(1035.827883 1652.598438) scale(0.1 -0.1)">
       <defs>
        <path id="DejaVuSans-31" d="M 794 531 
L 1825 531 
L 1825 4091 
L 703 3866 
L 703 4441 
L 1819 4666 
L 2450 4666 
L 2450 531 
L 3481 531 
L 3481 0 
L 794 0 
L 794 531 
z
" transform="scale(0.015625)"/>
       </defs>
       <use xlink:href="#DejaVuSans-31"/>
       <use xlink:href="#DejaVuSans-30" x="63.623047"/>
       <use xlink:href="#DejaVuSans-30" x="127.246094"/>
       <use xlink:href="#DejaVuSans-30" x="190.869141"/>
      </g>
     </g>
    </g>
    <g id="xtick_6">
     <g id="line2d_6">
      <g>
       <use xlink:href="#me59fb67126" x="1290.836527" y="1638" style="stroke: #000000; stroke-width: 0.8"/>
      </g>
     </g>
     <g id="text_6">
      <!-- 1250 -->
      <g transform="translate(1278.111527 1652.598438) scale(0.1 -0.1)">
       <use xlink:href="#DejaVuSans-31"/>
       <use xlink:href="#DejaVuSans-32" x="63.623047"/>
       <use xlink:href="#DejaVuSans-35" x="127.246094"/>
       <use xlink:href="#DejaVuSans-30" x="190.869141"/>
      </g>
     </g>
    </g>
    <g id="xtick_7">
     <g id="line2d_7">
      <g>
       <use xlink:href="#me59fb67126" x="1533.120172" y="1638" style="stroke: #000000; stroke-width: 0.8"/>
      </g>
     </g>
     <g id="text_7">
      <!-- 1500 -->
      <g transform="translate(1520.395172 1652.598438) scale(0.1 -0.1)">
       <use xlink:href="#DejaVuSans-31"/>
       <use xlink:href="#DejaVuSans-35" x="63.623047"/>
       <use xlink:href="#DejaVuSans-30" x="127.246094"/>
       <use xlink:href="#DejaVuSans-30" x="190.869141"/>
      </g>
     </g>
    </g>
    <g id="xtick_8">
     <g id="line2d_8">
      <g>
       <use xlink:href="#me59fb67126" x="1775.403816" y="1638" style="stroke: #000000; stroke-width: 0.8"/>
      </g>
     </g>
     <g id="text_8">
      <!-- 1750 -->
      <g transform="translate(1762.678816 1652.598438) scale(0.1 -0.1)">
       <use xlink:href="#DejaVuSans-31"/>
       <use xlink:href="#DejaVuSans-37" x="63.623047"/>
       <use xlink:href="#DejaVuSans-35" x="127.246094"/>
       <use xlink:href="#DejaVuSans-30" x="190.869141"/>
      </g>
     </g>
    </g>
   </g>
   <g id="matplotlib.axis_2">
    <g id="ytick_1">
     <g id="line2d_9">
      <defs>
       <path id="m1c74f523c9" d="M 0 0 
L -3.5 0 
" style="stroke: #000000; stroke-width: 0.8"/>
      </defs>
      <g>
       <use xlink:href="#m1c74f523c9" x="33.2875" y="1578.266372" style="stroke: #000000; stroke-width: 0.8"/>
      </g>
     </g>
     <g id="text_9">
      <!-- 0 -->
      <g transform="translate(19.925 1582.065591) scale(0.1 -0.1)">
       <use xlink:href="#DejaVuSans-30"/>
      </g>
     </g>
    </g>
    <g id="ytick_2">
     <g id="line2d_10">
      <g>
       <use xlink:href="#m1c74f523c9" x="33.2875" y="1218.425243" style="stroke: #000000; stroke-width: 0.8"/>
      </g>
     </g>
     <g id="text_10">
      <!-- 200 -->
      <g transform="translate(7.2 1222.224461) scale(0.1 -0.1)">
       <use xlink:href="#DejaVuSans-32"/>
       <use xlink:href="#DejaVuSans-30" x="63.623047"/>
       <use xlink:href="#DejaVuSans-30" x="127.246094"/>
      </g>
     </g>
    </g>
    <g id="ytick_3">
     <g id="line2d_11">
      <g>
       <use xlink:href="#m1c74f523c9" x="33.2875" y="858.584113" style="stroke: #000000; stroke-width: 0.8"/>
      </g>
     </g>
     <g id="text_11">
      <!-- 400 -->
      <g transform="translate(7.2 862.383332) scale(0.1 -0.1)">
       <defs>
        <path id="DejaVuSans-34" d="M 2419 4116 
L 825 1625 
L 2419 1625 
L 2419 4116 
z
M 2253 4666 
L 3047 4666 
L 3047 1625 
L 3713 1625 
L 3713 1100 
L 3047 1100 
L 3047 0 
L 2419 0 
L 2419 1100 
L 313 1100 
L 313 1709 
L 2253 4666 
z
" transform="scale(0.015625)"/>
       </defs>
       <use xlink:href="#DejaVuSans-34"/>
       <use xlink:href="#DejaVuSans-30" x="63.623047"/>
       <use xlink:href="#DejaVuSans-30" x="127.246094"/>
      </g>
     </g>
    </g>
    <g id="ytick_4">
     <g id="line2d_12">
      <g>
       <use xlink:href="#m1c74f523c9" x="33.2875" y="498.742983" style="stroke: #000000; stroke-width: 0.8"/>
      </g>
     </g>
     <g id="text_12">
      <!-- 600 -->
      <g transform="translate(7.2 502.542202) scale(0.1 -0.1)">
       <defs>
        <path id="DejaVuSans-36" d="M 2113 2584 
Q 1688 2584 1439 2293 
Q 1191 2003 1191 1497 
Q 1191 994 1439 701 
Q 1688 409 2113 409 
Q 2538 409 2786 701 
Q 3034 994 3034 1497 
Q 3034 2003 2786 2293 
Q 2538 2584 2113 2584 
z
M 3366 4563 
L 3366 3988 
Q 3128 4100 2886 4159 
Q 2644 4219 2406 4219 
Q 1781 4219 1451 3797 
Q 1122 3375 1075 2522 
Q 1259 2794 1537 2939 
Q 1816 3084 2150 3084 
Q 2853 3084 3261 2657 
Q 3669 2231 3669 1497 
Q 3669 778 3244 343 
Q 2819 -91 2113 -91 
Q 1303 -91 875 529 
Q 447 1150 447 2328 
Q 447 3434 972 4092 
Q 1497 4750 2381 4750 
Q 2619 4750 2861 4703 
Q 3103 4656 3366 4563 
z
" transform="scale(0.015625)"/>
       </defs>
       <use xlink:href="#DejaVuSans-36"/>
       <use xlink:href="#DejaVuSans-30" x="63.623047"/>
       <use xlink:href="#DejaVuSans-30" x="127.246094"/>
      </g>
     </g>
    </g>
    <g id="ytick_5">
     <g id="line2d_13">
      <g>
       <use xlink:href="#m1c74f523c9" x="33.2875" y="138.901853" style="stroke: #000000; stroke-width: 0.8"/>
      </g>
     </g>
     <g id="text_13">
      <!-- 800 -->
      <g transform="translate(7.2 142.701072) scale(0.1 -0.1)">
       <defs>
        <path id="DejaVuSans-38" d="M 2034 2216 
Q 1584 2216 1326 1975 
Q 1069 1734 1069 1313 
Q 1069 891 1326 650 
Q 1584 409 2034 409 
Q 2484 409 2743 651 
Q 3003 894 3003 1313 
Q 3003 1734 2745 1975 
Q 2488 2216 2034 2216 
z
M 1403 2484 
Q 997 2584 770 2862 
Q 544 3141 544 3541 
Q 544 4100 942 4425 
Q 1341 4750 2034 4750 
Q 2731 4750 3128 4425 
Q 3525 4100 3525 3541 
Q 3525 3141 3298 2862 
Q 3072 2584 2669 2484 
Q 3125 2378 3379 2068 
Q 3634 1759 3634 1313 
Q 3634 634 3220 271 
Q 2806 -91 2034 -91 
Q 1263 -91 848 271 
Q 434 634 434 1313 
Q 434 1759 690 2068 
Q 947 2378 1403 2484 
z
M 1172 3481 
Q 1172 3119 1398 2916 
Q 1625 2713 2034 2713 
Q 2441 2713 2670 2916 
Q 2900 3119 2900 3481 
Q 2900 3844 2670 4047 
Q 2441 4250 2034 4250 
Q 1625 4250 1398 4047 
Q 1172 3844 1172 3481 
z
" transform="scale(0.015625)"/>
       </defs>
       <use xlink:href="#DejaVuSans-38"/>
       <use xlink:href="#DejaVuSans-30" x="63.623047"/>
       <use xlink:href="#DejaVuSans-30" x="127.246094"/>
      </g>
     </g>
    </g>
   </g>
   <g id="line2d_14">
    <path d="M 358.529064 110.114563 
L 362.405602 81.327273 
L 389.541371 81.327273 
L 412.8006 88.524095 
L 424.430215 88.524095 
L 424.430215 88.524095 
L 424.430215 124.508208 
L 486.454828 146.098676 
L 490.331367 146.098676 
L 563.985594 282.838305 
L 563.985594 254.051015 
L 494.207905 304.428773 
L 490.331367 290.035128 
L 486.454828 282.838305 
L 486.454828 282.838305 
L 486.454828 290.035128 
L 532.973288 275.641483 
L 529.09675 268.44466 
L 536.849826 290.035128 
L 556.232518 304.428773 
L 560.109056 304.428773 
L 575.615209 318.822418 
L 583.368286 318.822418 
L 587.244824 333.216064 
L 602.750978 326.019241 
L 610.504054 326.019241 
L 610.504054 333.216064 
L 641.516361 354.806531 
L 645.392899 347.609709 
L 660.899052 383.593822 
L 676.405205 412.381112 
L 699.664435 441.168402 
L 719.047127 455.562048 
L 734.55328 462.75887 
L 742.306357 469.955693 
L 742.306357 498.742983 
L 746.182895 513.136628 
L 746.182895 549.120741 
L 757.81251 585.104854 
L 750.059433 585.104854 
L 753.935972 592.301677 
L 765.565587 606.695322 
L 784.948278 635.482613 
L 800.454431 649.876258 
L 831.466738 671.466726 
L 846.972891 700.254016 
L 866.355583 721.844484 
L 893.491351 736.238129 
L 924.503657 750.631774 
L 951.639425 757.828597 
L 974.898655 765.025419 
L 998.157885 765.025419 
L 1021.417115 750.631774 
L 1044.676345 743.434951 
L 1071.812113 743.434951 
L 1095.071343 750.631774 
L 1110.577496 743.434951 
L 1122.207111 729.041306 
L 1122.207111 649.876258 
L 1137.713264 657.07308 
L 1141.589803 613.892145 
L 1141.589803 585.104854 
L 1141.589803 585.104854 
L 1133.836726 592.301677 
L 1133.836726 592.301677 
L 1137.713264 592.301677 
L 1129.960188 563.514387 
L 1137.713264 570.711209 
L 1157.095956 592.301677 
L 1164.849032 592.301677 
L 1219.120569 599.4985 
L 1219.120569 606.695322 
L 1226.873645 606.695322 
L 1226.873645 613.892145 
L 1226.873645 606.695322 
L 1246.256337 606.695322 
L 1257.885952 599.4985 
L 1269.515567 606.695322 
L 1277.268643 599.4985 
L 1277.268643 585.104854 
L 1300.527873 613.892145 
L 1312.157488 621.088967 
L 1319.910565 628.28579 
L 1339.293256 621.088967 
L 1347.046333 635.482613 
L 1362.552486 635.482613 
L 1374.182101 649.876258 
L 1374.182101 642.679435 
L 1381.935178 628.28579 
L 1393.564793 621.088967 
L 1401.317869 635.482613 
L 1401.317869 671.466726 
L 1420.700561 685.860371 
L 1412.947484 693.057193 
L 1412.947484 685.860371 
L 1428.453637 693.057193 
L 1428.453637 693.057193 
L 1424.577099 707.450838 
L 1428.453637 693.057193 
L 1428.453637 700.254016 
L 1440.083252 707.450838 
L 1443.959791 707.450838 
L 1447.836329 714.647661 
L 1447.836329 721.844484 
L 1463.342482 721.844484 
L 1463.342482 714.647661 
L 1471.095559 721.844484 
L 1482.725174 729.041306 
L 1498.231327 736.238129 
L 1517.614018 757.828597 
L 1540.873248 772.222242 
L 1556.379402 786.615887 
L 1595.144785 815.403177 
L 1602.897861 815.403177 
L 1602.897861 815.403177 
" clip-path="url(#pe04e95586e)" style="fill: none; stroke: #8000ff; stroke-width: 1.5; stroke-linecap: square"/>
   </g>
   <g id="line2d_15">
    <path d="M 1897.514773 1038.504678 
L 1870.379005 1016.91421 
L 1850.996313 1009.717387 
L 1839.366698 995.323742 
L 1835.49016 1009.717387 
L 1839.366698 1024.111033 
L 1843.243236 1024.111033 
L 1839.366698 1024.111033 
L 1847.119775 1038.504678 
L 1808.354392 1038.504678 
L 1788.9717 1045.7015 
L 1750.206317 1052.898323 
L 1715.317472 1081.685613 
L 1692.058242 1096.079259 
L 1626.157091 1096.079259 
L 1595.144785 1132.063372 
L 1560.25594 1146.457017 
L 1509.860942 1204.031598 
L 1459.465944 1218.425243 
L 1397.441331 1240.015711 
L 1370.305563 1240.015711 
L 1347.046333 1268.803001 
L 1327.663641 1261.606178 
L 1327.663641 1275.999823 
L 1331.54018 1268.803001 
L 1339.293256 1268.803001 
L 1350.922871 1261.606178 
L 1350.922871 1247.212533 
L 1347.046333 1240.015711 
L 1354.799409 1232.818888 
L 1362.552486 1232.818888 
L 1374.182101 1218.425243 
L 1378.058639 1204.031598 
L 1374.182101 1182.44113 
L 1370.305563 1168.047485 
L 1362.552486 1146.457017 
L 1343.169795 1110.472904 
L 1308.28095 1067.291968 
L 1300.527873 1045.7015 
L 1261.76249 1016.91421 
L 1219.120569 980.930097 
L 1203.614415 959.339629 
L 1168.725571 916.158694 
L 1168.725571 916.158694 
L 1184.231724 908.961871 
L 1184.231724 923.355516 
L 1180.355186 916.158694 
L 1168.725571 916.158694 
L 1164.849032 923.355516 
L 1176.478647 923.355516 
L 1180.355186 916.158694 
L 1184.231724 916.158694 
L 1176.478647 916.158694 
L 1184.231724 887.371403 
L 1184.231724 894.568226 
L 1184.231724 872.977758 
L 1180.355186 872.977758 
L 1184.231724 872.977758 
L 1184.231724 865.780936 
L 1184.231724 865.780936 
L 1188.108262 858.584113 
L 1176.478647 851.38729 
L 1168.725571 858.584113 
L 1164.849032 836.993645 
L 1157.095956 829.796823 
L 1157.095956 822.6 
L 1168.725571 815.403177 
L 1176.478647 815.403177 
L 1180.355186 801.009532 
L 1160.972494 757.828597 
L 1153.219417 721.844484 
L 1153.219417 707.450838 
L 1172.602109 664.269903 
L 1176.478647 664.269903 
L 1180.355186 671.466726 
L 1191.984801 671.466726 
L 1180.355186 628.28579 
L 1168.725571 621.088967 
L 1164.849032 628.28579 
L 1168.725571 621.088967 
L 1172.602109 628.28579 
L 1184.231724 642.679435 
L 1184.231724 642.679435 
L 1180.355186 628.28579 
L 1184.231724 613.892145 
L 1172.602109 606.695322 
L 1160.972494 592.301677 
L 1149.342879 585.104854 
L 1145.466341 585.104854 
L 1137.713264 570.711209 
L 1114.454034 549.120741 
L 1106.700958 577.908032 
L 1091.194804 577.908032 
L 1083.441728 534.727096 
L 1048.552883 491.546161 
L 1048.552883 484.349338 
L 1033.04673 477.152515 
L 1033.04673 477.152515 
L 1036.923268 484.349338 
L 1040.799806 484.349338 
L 1036.923268 477.152515 
L 1036.923268 469.955693 
L 1033.04673 455.562048 
L 1033.04673 448.365225 
L 1036.923268 448.365225 
L 1040.799806 455.562048 
L 1048.552883 462.75887 
L 1048.552883 477.152515 
L 1048.552883 477.152515 
L 1044.676345 491.546161 
L 1040.799806 491.546161 
L 1013.664038 455.562048 
L 1005.910962 433.97158 
L 1002.034423 441.168402 
L 990.404808 433.97158 
L 990.404808 433.97158 
L 982.651732 383.593822 
L 986.52827 390.790644 
L 978.775194 397.987467 
L 978.775194 397.987467 
L 974.898655 405.184289 
L 974.898655 405.184289 
L 978.775194 412.381112 
L 974.898655 412.381112 
L 1013.664038 448.365225 
L 1009.7875 448.365225 
L 994.281347 455.562048 
L 986.52827 455.562048 
L 974.898655 462.75887 
L 974.898655 455.562048 
L 967.145579 462.75887 
L 967.145579 462.75887 
L 959.392502 462.75887 
L 967.145579 462.75887 
L 963.26904 469.955693 
L 959.392502 469.955693 
L 967.145579 455.562048 
L 998.157885 477.152515 
L 998.157885 484.349338 
L 990.404808 491.546161 
L 998.157885 505.939806 
L 998.157885 527.530274 
L 998.157885 527.530274 
L 1002.034423 541.923919 
L 998.157885 556.317564 
L 1002.034423 563.514387 
L 1002.034423 563.514387 
L 990.404808 621.088967 
L 986.52827 635.482613 
L 978.775194 642.679435 
L 967.145579 649.876258 
L 951.639425 671.466726 
L 916.750581 685.860371 
L 889.614812 678.663548 
L 870.232121 664.269903 
L 846.972891 649.876258 
L 819.837123 635.482613 
L 808.207508 621.088967 
L 800.454431 613.892145 
L 796.577893 613.892145 
L 792.701355 606.695322 
L 792.701355 606.695322 
L 800.454431 606.695322 
L 788.824816 606.695322 
L 788.824816 606.695322 
L 788.824816 613.892145 
L 792.701355 613.892145 
L 792.701355 613.892145 
L 792.701355 606.695322 
L 784.948278 613.892145 
L 761.689048 613.892145 
L 750.059433 621.088967 
L 726.800203 628.28579 
L 703.540974 642.679435 
L 672.528667 678.663548 
L 657.022514 693.057193 
L 649.269437 721.844484 
L 641.516361 743.434951 
L 641.516361 765.025419 
L 637.639822 772.222242 
L 641.516361 772.222242 
L 641.516361 786.615887 
L 641.516361 786.615887 
L 629.886746 815.403177 
L 622.133669 836.993645 
L 618.257131 844.190468 
L 618.257131 858.584113 
L 610.504054 865.780936 
L 610.504054 865.780936 
L 618.257131 865.780936 
L 618.257131 872.977758 
L 610.504054 872.977758 
L 610.504054 872.977758 
" clip-path="url(#pe04e95586e)" style="fill: none; stroke: #00b5eb; stroke-width: 1.5; stroke-linecap: square"/>
   </g>
   <g id="line2d_16">
    <path d="M 1827.737083 1563.872727 
L 1796.724777 1542.282259 
L 1769.589009 1535.085437 
L 1757.959394 1513.494969 
L 1750.206317 1513.494969 
L 1757.959394 1527.888614 
L 1773.465547 1549.479082 
L 1804.477853 1556.675905 
L 1812.23093 1549.479082 
L 1827.737083 1542.282259 
L 1827.737083 1549.479082 
L 1835.49016 1549.479082 
L 1839.366698 1549.479082 
L 1831.613621 1549.479082 
L 1827.737083 1542.282259 
L 1827.737083 1535.085437 
L 1823.860545 1535.085437 
L 1823.860545 1535.085437 
L 1812.23093 1513.494969 
L 1796.724777 1499.101324 
L 1781.218623 1484.707679 
L 1757.959394 1455.920388 
L 1723.070549 1441.526743 
L 1699.811319 1427.133098 
L 1676.552089 1405.54263 
L 1657.169398 1391.148985 
L 1633.910168 1369.558517 
L 1622.280553 1355.164872 
L 1618.404014 1333.574404 
L 1606.7744 1319.180759 
L 1579.638631 1304.787114 
L 1552.502863 1283.196646 
L 1513.73748 1261.606178 
L 1486.601712 1254.409356 
L 1455.589406 1254.409356 
L 1409.070946 1240.015711 
L 1385.811716 1225.622065 
L 1347.046333 1218.425243 
L 1296.651335 1211.22842 
L 1273.392105 1211.22842 
L 1230.750184 1168.047485 
L 1195.861339 1175.244307 
L 1188.108262 1160.850662 
L 1145.466341 1153.653839 
L 1141.589803 1153.653839 
L 1145.466341 1168.047485 
L 1160.972494 1189.637952 
L 1184.231724 1182.44113 
L 1207.490954 1196.834775 
L 1207.490954 1196.834775 
L 1207.490954 1204.031598 
L 1207.490954 1204.031598 
L 1203.614415 1204.031598 
L 1199.737877 1196.834775 
L 1203.614415 1196.834775 
L 1226.873645 1204.031598 
L 1230.750184 1196.834775 
L 1242.379799 1182.44113 
L 1242.379799 1168.047485 
L 1238.50326 1160.850662 
L 1230.750184 1153.653839 
L 1222.997107 1139.260194 
L 1215.24403 1117.669726 
L 1215.24403 1110.472904 
L 1215.24403 1103.276081 
L 1211.367492 1081.685613 
L 1207.490954 1067.291968 
L 1195.861339 1024.111033 
L 1176.478647 995.323742 
L 1153.219417 980.930097 
L 1133.836726 966.536452 
L 1118.330573 973.733274 
L 1114.454034 1002.520565 
L 1075.688651 1009.717387 
L 1029.170192 1016.91421 
L 1002.034423 1009.717387 
L 967.145579 1002.520565 
L 943.886349 1002.520565 
L 908.997504 1016.91421 
L 866.355583 980.930097 
L 850.849429 966.536452 
L 831.466738 937.749162 
L 835.343276 930.552339 
L 792.701355 894.568226 
L 765.565587 872.977758 
L 738.429818 865.780936 
L 695.787897 858.584113 
L 664.775591 851.38729 
L 633.763284 829.796823 
L 583.368286 815.403177 
L 552.35598 815.403177 
L 536.849826 815.403177 
L 525.220211 801.009532 
L 501.960982 793.81271 
L 474.825213 779.419064 
L 455.442522 765.025419 
L 420.553677 736.238129 
L 405.047524 721.844484 
L 385.664832 714.647661 
L 358.529064 685.860371 
L 331.393296 664.269903 
L 300.380989 635.482613 
L 277.12176 613.892145 
L 234.479838 585.104854 
L 207.34407 570.711209 
L 180.208302 541.923919 
L 141.442919 534.727096 
" clip-path="url(#pe04e95586e)" style="fill: none; stroke: #80ffb4; stroke-width: 1.5; stroke-linecap: square"/>
   </g>
   <g id="line2d_17">
    <path d="M 122.060227 549.120741 
L 137.566381 563.514387 
L 156.949072 563.514387 
L 172.455225 577.908032 
L 191.837917 592.301677 
L 187.961379 585.104854 
L 172.455225 577.908032 
L 168.578687 577.908032 
L 168.578687 585.104854 
L 168.578687 585.104854 
L 172.455225 585.104854 
L 191.837917 599.4985 
L 211.220608 621.088967 
L 230.6033 635.482613 
L 253.86253 649.876258 
L 261.615606 664.269903 
L 273.245221 678.663548 
L 292.627913 700.254016 
L 304.257528 714.647661 
L 315.887143 736.238129 
L 331.393296 750.631774 
L 331.393296 743.434951 
L 331.393296 743.434951 
L 331.393296 736.238129 
L 323.640219 729.041306 
L 323.640219 729.041306 
L 323.640219 721.844484 
L 331.393296 721.844484 
L 346.899449 729.041306 
L 366.282141 736.238129 
L 381.788294 743.434951 
L 401.170986 743.434951 
L 420.553677 765.025419 
L 439.936369 772.222242 
L 451.565984 779.419064 
L 463.195598 779.419064 
L 474.825213 786.615887 
L 478.701752 793.81271 
L 486.454828 793.81271 
L 501.960982 815.403177 
L 513.590596 836.993645 
L 525.220211 836.993645 
L 536.849826 858.584113 
L 552.35598 858.584113 
L 560.109056 865.780936 
L 567.862133 872.977758 
L 587.244824 880.174581 
L 610.504054 880.174581 
L 633.763284 894.568226 
L 657.022514 901.765049 
L 680.281744 908.961871 
L 699.664435 923.355516 
L 722.923665 937.749162 
L 726.800203 937.749162 
L 781.07174 1024.111033 
L 808.207508 1024.111033 
L 815.960585 1024.111033 
L 815.960585 1024.111033 
L 812.084046 1016.91421 
L 877.985197 1067.291968 
L 889.614812 1067.291968 
L 881.861736 1067.291968 
L 928.380196 1096.079259 
L 936.133272 1088.882436 
L 943.886349 1110.472904 
L 978.775194 1117.669726 
L 982.651732 1110.472904 
L 1017.540577 1124.866549 
L 1056.30596 1139.260194 
L 1079.56519 1153.653839 
L 1106.700958 1168.047485 
L 1122.207111 1168.047485 
L 1129.960188 1175.244307 
L 1141.589803 1189.637952 
L 1137.713264 1189.637952 
L 1122.207111 1182.44113 
L 1114.454034 1182.44113 
L 1091.194804 1160.850662 
L 1091.194804 1160.850662 
L 1091.194804 1153.653839 
L 1083.441728 1153.653839 
L 1075.688651 1139.260194 
" clip-path="url(#pe04e95586e)" style="fill: none; stroke: #ffb360; stroke-width: 1.5; stroke-linecap: square"/>
   </g>
   <g id="patch_3">
    <path d="M 33.2875 1638 
L 33.2875 7.2 
" style="fill: none; stroke: #000000; stroke-width: 0.8; stroke-linejoin: miter; stroke-linecap: square"/>
   </g>
   <g id="patch_4">
    <path d="M 1986.2875 1638 
L 1986.2875 7.2 
" style="fill: none; stroke: #000000; stroke-width: 0.8; stroke-linejoin: miter; stroke-linecap: square"/>
   </g>
   <g id="patch_5">
    <path d="M 33.2875 1638 
L 1986.2875 1638 
" style="fill: none; stroke: #000000; stroke-width: 0.8; stroke-linejoin: miter; stroke-linecap: square"/>
   </g>
   <g id="patch_6">
    <path d="M 33.2875 7.2 
L 1986.2875 7.2 
" style="fill: none; stroke: #000000; stroke-width: 0.8; stroke-linejoin: miter; stroke-linecap: square"/>
   </g>
  </g>
 </g>
 <defs>
  <clipPath id="pe04e95586e">
   <rect x="33.2875" y="7.2" width="1953" height="1630.8"/>
  </clipPath>
 </defs>
</svg>
